<svg xmlns="http://www.w3.org/2000/svg" xmlns:xlink="http://www.w3.org/1999/xlink" width="500" zoomAndPan="magnify" viewBox="0 0 375 374.999991" height="500" preserveAspectRatio="xMidYMid meet" version="1.0"><defs><g/><clipPath id="5d339e8a7a"><path d="M 23 0.839844 L 313 0.839844 L 313 110.039062 L 23 110.039062 Z M 23 0.839844 " clip-rule="nonzero"/></clipPath><clipPath id="6223811ac4"><rect x="0" width="290" y="0" height="111"/></clipPath><clipPath id="8fd4d177a1"><path d="M 0.441406 2 L 21 2 L 21 110.039062 L 0.441406 110.039062 Z M 0.441406 2 " clip-rule="nonzero"/></clipPath><clipPath id="dca9b93a93"><rect x="0" width="21" y="0" height="109"/></clipPath><clipPath id="cfb0652b23"><path d="M 317.464844 65.585938 L 337.808594 65.585938 L 337.808594 85.933594 L 317.464844 85.933594 Z M 317.464844 65.585938 " clip-rule="nonzero"/></clipPath><clipPath id="8daa1fc8f1"><path d="M 327.636719 65.585938 C 322.019531 65.585938 317.464844 70.140625 317.464844 75.761719 C 317.464844 81.378906 322.019531 85.933594 327.636719 85.933594 C 333.253906 85.933594 337.808594 81.378906 337.808594 75.761719 C 337.808594 70.140625 333.253906 65.585938 327.636719 65.585938 Z M 327.636719 65.585938 " clip-rule="nonzero"/></clipPath><clipPath id="5ea6d6dec7"><path d="M 0.464844 0.585938 L 20.808594 0.585938 L 20.808594 20.933594 L 0.464844 20.933594 Z M 0.464844 0.585938 " clip-rule="nonzero"/></clipPath><clipPath id="42c5e84498"><path d="M 10.636719 0.585938 C 5.019531 0.585938 0.464844 5.140625 0.464844 10.761719 C 0.464844 16.378906 5.019531 20.933594 10.636719 20.933594 C 16.253906 20.933594 20.808594 16.378906 20.808594 10.761719 C 20.808594 5.140625 16.253906 0.585938 10.636719 0.585938 Z M 10.636719 0.585938 " clip-rule="nonzero"/></clipPath><clipPath id="bc3cdb4004"><rect x="0" width="21" y="0" height="21"/></clipPath><clipPath id="e52f728f28"><rect x="0" width="338" y="0" height="111"/></clipPath></defs><g transform="matrix(1, 0, 0, 1, 19, 129)"><g clip-path="url(#e52f728f28)"><g clip-path="url(#5d339e8a7a)"><g transform="matrix(1, 0, 0, 1, 23, 0)"><g clip-path="url(#6223811ac4)"><g fill="#ffffff" fill-opacity="1"><g transform="translate(2.068703, 86.244827)"><g><path d="M 54.859375 -0.53125 C 52.992188 -0.601562 51.113281 -0.617188 49.21875 -0.578125 C 47.320312 -0.546875 45.40625 -0.53125 43.46875 -0.53125 C 43.039062 -0.53125 42.703125 -1.28125 42.453125 -2.78125 C 42.203125 -4.289062 42.039062 -6.257812 41.96875 -8.6875 C 41.894531 -11.125 41.859375 -13.753906 41.859375 -16.578125 C 41.859375 -19.410156 41.894531 -22.148438 41.96875 -24.796875 C 42.039062 -27.441406 42.09375 -29.726562 42.125 -31.65625 C 42.164062 -33.59375 42.1875 -34.847656 42.1875 -35.421875 C 42.113281 -39.429688 41.484375 -42.472656 40.296875 -44.546875 C 39.117188 -46.617188 37.65625 -48.046875 35.90625 -48.828125 C 34.15625 -49.617188 32.421875 -50.015625 30.703125 -50.015625 L 30.484375 -50.015625 C 26.398438 -50.015625 23.085938 -48.632812 20.546875 -45.875 C 18.015625 -43.125 16.675781 -39.53125 16.53125 -35.09375 C 16.457031 -32.238281 16.421875 -29.378906 16.421875 -26.515625 C 16.421875 -23.648438 16.421875 -20.785156 16.421875 -17.921875 C 16.492188 -15.703125 16.691406 -13.25 17.015625 -10.5625 C 17.335938 -7.882812 17.285156 -5.4375 16.859375 -3.21875 C 16.566406 -1.570312 15.898438 -0.691406 14.859375 -0.578125 C 13.828125 -0.472656 12.664062 -0.390625 11.375 -0.328125 C 10.519531 -0.253906 9.394531 -0.160156 8 -0.046875 C 6.601562 0.0546875 5.242188 0.00390625 3.921875 -0.203125 C 2.597656 -0.421875 1.613281 -0.960938 0.96875 -1.828125 C 0.175781 -2.972656 -0.113281 -4.347656 0.09375 -5.953125 C 0.3125 -7.566406 0.457031 -8.984375 0.53125 -10.203125 C 0.820312 -14.128906 1.039062 -18.132812 1.1875 -22.21875 C 1.394531 -29.945312 1.175781 -37.640625 0.53125 -45.296875 C 0.394531 -46.796875 0.289062 -48.546875 0.21875 -50.546875 C 0.144531 -52.554688 0.300781 -54.472656 0.6875 -56.296875 C 1.082031 -58.117188 1.867188 -59.550781 3.046875 -60.59375 C 4.234375 -61.632812 6.007812 -61.941406 8.375 -61.515625 C 10.300781 -61.148438 12.195312 -60.695312 14.0625 -60.15625 C 15.925781 -59.625 17.820312 -59.179688 19.75 -58.828125 C 19.894531 -58.828125 20.054688 -58.828125 20.234375 -58.828125 C 20.410156 -58.828125 20.535156 -58.828125 20.609375 -58.828125 C 21.972656 -58.828125 23.332031 -59.09375 24.6875 -59.625 C 26.050781 -60.164062 27.445312 -60.722656 28.875 -61.296875 C 30.300781 -61.867188 31.734375 -62.191406 33.171875 -62.265625 C 37.316406 -62.617188 41.253906 -61.898438 44.984375 -60.109375 C 48.203125 -58.609375 50.6875 -56.640625 52.4375 -54.203125 C 54.1875 -51.773438 55.453125 -49.09375 56.234375 -46.15625 C 57.023438 -43.21875 57.53125 -40.175781 57.75 -37.03125 C 57.96875 -33.882812 58.144531 -30.769531 58.28125 -27.6875 C 58.28125 -27.050781 58.351562 -25.726562 58.5 -23.71875 C 58.644531 -21.71875 58.734375 -19.410156 58.765625 -16.796875 C 58.804688 -14.179688 58.753906 -11.640625 58.609375 -9.171875 C 58.460938 -6.703125 58.117188 -4.644531 57.578125 -3 C 57.046875 -1.351562 56.242188 -0.53125 55.171875 -0.53125 C 55.097656 -0.53125 55.039062 -0.53125 55 -0.53125 C 54.96875 -0.53125 54.921875 -0.53125 54.859375 -0.53125 Z M 54.859375 -0.53125 "/></g></g></g><g fill="#ffffff" fill-opacity="1"><g transform="translate(61.099719, 86.244827)"><g><path d="M 60.21875 -27.265625 C 59.363281 -26.546875 58.09375 -26.0625 56.40625 -25.8125 C 54.726562 -25.5625 52.941406 -25.4375 51.046875 -25.4375 C 49.148438 -25.4375 47.378906 -25.472656 45.734375 -25.546875 C 44.085938 -25.617188 42.832031 -25.65625 41.96875 -25.65625 C 38.25 -25.582031 34.5625 -25.523438 30.90625 -25.484375 C 27.257812 -25.453125 23.578125 -25.4375 19.859375 -25.4375 C 18.710938 -25.4375 17.976562 -25.078125 17.65625 -24.359375 C 17.332031 -23.648438 17.296875 -22.847656 17.546875 -21.953125 C 17.796875 -21.054688 18.140625 -20.285156 18.578125 -19.640625 C 20.078125 -17.710938 21.953125 -16.15625 24.203125 -14.96875 C 26.460938 -13.789062 28.804688 -13.0625 31.234375 -12.78125 C 33.953125 -12.488281 36.222656 -12.859375 38.046875 -13.890625 C 39.878906 -14.929688 41.9375 -16.023438 44.21875 -17.171875 C 45.289062 -17.742188 46.023438 -18.101562 46.421875 -18.25 C 46.816406 -18.394531 47.476562 -18.070312 48.40625 -17.28125 C 49.414062 -16.488281 50.363281 -15.410156 51.25 -14.046875 C 52.144531 -12.691406 53.023438 -11.515625 53.890625 -10.515625 C 54.816406 -9.296875 54.78125 -8.148438 53.78125 -7.078125 C 52.78125 -6.003906 51.238281 -5.019531 49.15625 -4.125 C 47.082031 -3.238281 44.828125 -2.472656 42.390625 -1.828125 C 39.960938 -1.179688 37.765625 -0.675781 35.796875 -0.3125 C 33.828125 0.0390625 32.488281 0.21875 31.78125 0.21875 C 26.976562 0.21875 22.554688 -0.726562 18.515625 -2.625 C 14.472656 -4.519531 11.019531 -7.097656 8.15625 -10.359375 C 5.289062 -13.617188 3.144531 -17.285156 1.71875 -21.359375 C 0.289062 -25.441406 -0.265625 -29.71875 0.046875 -34.1875 C 0.367188 -38.65625 1.75 -43.003906 4.1875 -47.234375 C 6.050781 -50.523438 8.535156 -53.3125 11.640625 -55.59375 C 14.753906 -57.882812 18.191406 -59.582031 21.953125 -60.6875 C 25.710938 -61.800781 29.554688 -62.304688 33.484375 -62.203125 C 37.421875 -62.097656 41.160156 -61.3125 44.703125 -59.84375 C 48.242188 -58.375 51.34375 -56.175781 54 -53.25 C 55.207031 -51.882812 56.363281 -50.179688 57.46875 -48.140625 C 58.582031 -46.097656 59.535156 -43.894531 60.328125 -41.53125 C 61.117188 -39.175781 61.601562 -36.867188 61.78125 -34.609375 C 61.957031 -32.359375 61.722656 -30.304688 61.078125 -28.453125 C 60.929688 -28.015625 60.644531 -27.617188 60.21875 -27.265625 Z M 44.015625 -38.421875 C 44.222656 -38.929688 44.289062 -39.472656 44.21875 -40.046875 C 44.15625 -40.898438 43.765625 -41.722656 43.046875 -42.515625 C 41.109375 -45.234375 38.601562 -47.234375 35.53125 -48.515625 C 32.457031 -49.804688 29.304688 -49.734375 26.078125 -48.296875 C 24.648438 -47.660156 23.3125 -46.835938 22.0625 -45.828125 C 20.8125 -44.828125 19.648438 -43.753906 18.578125 -42.609375 C 18.285156 -42.328125 17.992188 -42.003906 17.703125 -41.640625 C 17.421875 -41.285156 17.207031 -40.894531 17.0625 -40.46875 C 16.78125 -39.613281 16.925781 -38.828125 17.5 -38.109375 C 18.070312 -37.390625 18.785156 -37.03125 19.640625 -37.03125 L 41.546875 -37.03125 C 42.753906 -37.03125 43.578125 -37.492188 44.015625 -38.421875 Z M 44.015625 -38.421875 "/></g></g></g><g fill="#ffffff" fill-opacity="1"><g transform="translate(123.136014, 86.244827)"><g><path d="M 33.390625 -47.546875 C 33.023438 -47.335938 32.609375 -47.175781 32.140625 -47.0625 C 31.679688 -46.957031 31.238281 -46.832031 30.8125 -46.6875 C 30.019531 -46.625 29.191406 -46.570312 28.328125 -46.53125 C 27.472656 -46.5 26.65625 -46.375 25.875 -46.15625 C 24.15625 -45.65625 22.6875 -44.742188 21.46875 -43.421875 C 20.25 -42.097656 19.316406 -40.613281 18.671875 -38.96875 C 17.460938 -35.675781 16.695312 -32.097656 16.375 -28.234375 C 16.050781 -24.367188 15.941406 -20.46875 16.046875 -16.53125 C 16.148438 -12.59375 16.164062 -8.867188 16.09375 -5.359375 L 16.09375 -3.75 C 16.09375 -2.394531 15.570312 -1.445312 14.53125 -0.90625 C 13.5 -0.375 12.25 -0.0859375 10.78125 -0.046875 C 9.320312 -0.015625 7.894531 -0.0664062 6.5 -0.203125 C 5.101562 -0.347656 4.007812 -0.457031 3.21875 -0.53125 C 2.5 -0.53125 1.960938 -0.675781 1.609375 -0.96875 C 0.960938 -1.394531 0.550781 -2.21875 0.375 -3.4375 C 0.195312 -4.65625 0.109375 -6.015625 0.109375 -7.515625 C 0.109375 -9.015625 0.160156 -10.441406 0.265625 -11.796875 C 0.367188 -13.160156 0.421875 -14.164062 0.421875 -14.8125 C 0.566406 -17.320312 0.710938 -19.828125 0.859375 -22.328125 C 1.003906 -24.828125 1.078125 -27.332031 1.078125 -29.84375 C 1.078125 -34.707031 1.078125 -39.585938 1.078125 -44.484375 C 1.078125 -49.390625 1.078125 -54.3125 1.078125 -59.25 C 1.078125 -60.46875 1.363281 -61.238281 1.9375 -61.5625 C 2.507812 -61.882812 3.222656 -62.007812 4.078125 -61.9375 C 4.929688 -61.863281 5.789062 -61.863281 6.65625 -61.9375 C 8.15625 -62.15625 9.625 -62.265625 11.0625 -62.265625 C 13.988281 -62.265625 16.238281 -61.332031 17.8125 -59.46875 C 18.382812 -58.820312 19.101562 -58.5 19.96875 -58.5 C 20.25 -58.5 20.5 -58.535156 20.71875 -58.609375 C 21.644531 -58.679688 22.753906 -59.003906 24.046875 -59.578125 C 25.335938 -60.148438 26.675781 -60.703125 28.0625 -61.234375 C 29.457031 -61.773438 30.765625 -62.132812 31.984375 -62.3125 C 33.203125 -62.488281 34.203125 -62.269531 34.984375 -61.65625 C 35.773438 -61.050781 36.171875 -59.820312 36.171875 -57.96875 C 36.171875 -57.03125 36.148438 -56.078125 36.109375 -55.109375 C 36.078125 -54.148438 36.023438 -53.207031 35.953125 -52.28125 C 35.890625 -51.78125 35.820312 -51.242188 35.75 -50.671875 C 35.675781 -50.097656 35.457031 -49.59375 35.09375 -49.15625 C 34.664062 -48.375 34.097656 -47.835938 33.390625 -47.546875 Z M 33.390625 -47.546875 "/></g></g></g><g fill="#ffffff" fill-opacity="1"><g transform="translate(159.520009, 86.244827)"><g><path d="M 54 -55.390625 C 55.351562 -53.890625 55.78125 -52.28125 55.28125 -50.5625 C 55.0625 -49.769531 54.679688 -49.035156 54.140625 -48.359375 C 53.609375 -47.679688 53.054688 -47.019531 52.484375 -46.375 C 52.128906 -46.007812 51.769531 -45.648438 51.40625 -45.296875 C 51.050781 -44.941406 50.695312 -44.582031 50.34375 -44.21875 C 49.769531 -43.582031 49 -43.367188 48.03125 -43.578125 C 47.070312 -43.796875 46.109375 -44.15625 45.140625 -44.65625 C 44.171875 -45.15625 43.328125 -45.515625 42.609375 -45.734375 C 41.035156 -46.304688 39.476562 -46.804688 37.9375 -47.234375 C 36.40625 -47.660156 34.816406 -47.984375 33.171875 -48.203125 C 32.804688 -48.265625 32.460938 -48.296875 32.140625 -48.296875 C 31.828125 -48.296875 31.488281 -48.296875 31.125 -48.296875 C 27.625 -48.296875 24.492188 -47.238281 21.734375 -45.125 C 18.984375 -43.019531 17.101562 -40.21875 16.09375 -36.71875 C 15.019531 -32.914062 15.128906 -29.191406 16.421875 -25.546875 C 17.710938 -21.898438 19.929688 -18.96875 23.078125 -16.75 C 25.515625 -15.101562 28.664062 -14.28125 32.53125 -14.28125 C 37.46875 -14.28125 41.4375 -15.457031 44.4375 -17.8125 C 45.875 -18.957031 47.070312 -19.691406 48.03125 -20.015625 C 49 -20.335938 50.164062 -19.675781 51.53125 -18.03125 C 52.238281 -17.3125 52.929688 -16.539062 53.609375 -15.71875 C 54.296875 -14.894531 54.960938 -14.054688 55.609375 -13.203125 C 56.460938 -12.054688 56.601562 -10.945312 56.03125 -9.875 C 55.457031 -8.800781 54.488281 -7.796875 53.125 -6.859375 C 51.769531 -5.929688 50.359375 -5.128906 48.890625 -4.453125 C 47.421875 -3.773438 46.296875 -3.253906 45.515625 -2.890625 C 41.148438 -0.816406 36.570312 0.21875 31.78125 0.21875 C 27.050781 0.21875 22.539062 -0.800781 18.25 -2.84375 C 13.957031 -4.882812 10.128906 -7.765625 6.765625 -11.484375 C 3.898438 -14.847656 2 -18.316406 1.0625 -21.890625 C 0.132812 -25.472656 -0.164062 -28.976562 0.15625 -32.40625 C 0.476562 -35.84375 1.070312 -38.957031 1.9375 -41.75 C 3.789062 -47.476562 6.8125 -52.0625 11 -55.5 C 15.1875 -58.9375 20.394531 -61.046875 26.625 -61.828125 C 28.695312 -62.046875 30.628906 -62.15625 32.421875 -62.15625 C 33.421875 -62.15625 34.882812 -62.03125 36.8125 -61.78125 C 38.75 -61.53125 40.828125 -61.132812 43.046875 -60.59375 C 45.265625 -60.0625 47.375 -59.363281 49.375 -58.5 C 51.382812 -57.644531 52.925781 -56.609375 54 -55.390625 Z M 54 -55.390625 "/></g></g></g><g fill="#ffffff" fill-opacity="1"><g transform="translate(216.082389, 86.244827)"><g><path d="M 4.078125 -67.625 C 2.503906 -68.625 1.359375 -70.035156 0.640625 -71.859375 C -0.0664062 -73.691406 -0.101562 -75.679688 0.53125 -77.828125 C 1.75 -82.046875 4.613281 -84.226562 9.125 -84.375 L 9.34375 -84.375 C 11.5625 -84.375 13.421875 -83.78125 14.921875 -82.59375 C 16.421875 -81.414062 17.421875 -79.789062 17.921875 -77.71875 C 18.566406 -75.144531 18.316406 -72.78125 17.171875 -70.625 C 16.023438 -68.476562 14.09375 -67.085938 11.375 -66.453125 C 10.019531 -66.160156 8.710938 -66.117188 7.453125 -66.328125 C 6.203125 -66.546875 5.078125 -66.976562 4.078125 -67.625 Z M 2.578125 -56.890625 C 3.578125 -57.535156 5.007812 -57.820312 6.875 -57.75 C 7.945312 -57.75 9.125 -57.785156 10.40625 -57.859375 C 11.695312 -57.929688 12.894531 -57.804688 14 -57.484375 C 15.113281 -57.160156 15.847656 -56.425781 16.203125 -55.28125 C 16.847656 -53.488281 17.0625 -51.320312 16.84375 -48.78125 C 16.632812 -46.25 16.53125 -44.050781 16.53125 -42.1875 C 16.601562 -37.820312 16.640625 -33.488281 16.640625 -29.1875 C 16.640625 -24.894531 16.675781 -20.566406 16.75 -16.203125 C 16.75 -15.492188 16.835938 -14.296875 17.015625 -12.609375 C 17.191406 -10.929688 17.296875 -9.125 17.328125 -7.1875 C 17.367188 -5.257812 17.171875 -3.613281 16.734375 -2.25 C 16.304688 -0.894531 15.453125 -0.179688 14.171875 -0.109375 C 12.523438 -0.0351562 10.804688 0.015625 9.015625 0.046875 C 7.222656 0.0859375 5.503906 0 3.859375 -0.21875 C 2.710938 -0.351562 1.925781 -0.972656 1.5 -2.078125 C 1.070312 -3.191406 0.835938 -4.535156 0.796875 -6.109375 C 0.765625 -7.691406 0.820312 -9.195312 0.96875 -10.625 C 1.113281 -12.0625 1.1875 -13.171875 1.1875 -13.953125 C 1.113281 -16.890625 1.054688 -19.84375 1.015625 -22.8125 C 0.984375 -25.78125 0.96875 -28.734375 0.96875 -31.671875 C 0.894531 -34.171875 0.859375 -36.671875 0.859375 -39.171875 C 0.859375 -41.679688 0.820312 -44.15625 0.75 -46.59375 C 0.75 -48.664062 0.710938 -50.664062 0.640625 -52.59375 C 0.566406 -54.53125 1.210938 -55.960938 2.578125 -56.890625 Z M 2.578125 -56.890625 "/></g></g></g><g fill="#ffffff" fill-opacity="1"><g transform="translate(234.649297, 86.244827)"><g><path d="M 52.484375 -2.6875 C 51.910156 -1.96875 51.019531 -1.570312 49.8125 -1.5 C 48.664062 -1.5 47.554688 -1.726562 46.484375 -2.1875 C 45.410156 -2.65625 44.351562 -3.125 43.3125 -3.59375 C 42.269531 -4.0625 41.144531 -4.296875 39.9375 -4.296875 C 39.144531 -4.296875 38.351562 -4.238281 37.5625 -4.125 C 36.78125 -4.019531 36.066406 -3.894531 35.421875 -3.75 L 34.890625 -3.65625 C 32.816406 -3.289062 30.796875 -2.820312 28.828125 -2.25 C 26.859375 -1.675781 25.015625 -1.101562 23.296875 -0.53125 C 22.503906 -0.320312 21.695312 -0.144531 20.875 0 C 20.050781 0.144531 19.210938 0.21875 18.359375 0.21875 C 13.128906 0.21875 8.726562 -1.859375 5.15625 -6.015625 C 1.070312 -10.660156 -0.535156 -16.382812 0.328125 -23.1875 C 0.679688 -25.90625 1.625 -28.335938 3.15625 -30.484375 C 4.695312 -32.628906 6.648438 -34.273438 9.015625 -35.421875 C 10.234375 -35.992188 11.519531 -36.40625 12.875 -36.65625 C 14.238281 -36.90625 15.632812 -37.140625 17.0625 -37.359375 C 17.425781 -37.359375 17.75 -37.375 18.03125 -37.40625 C 18.320312 -37.445312 18.609375 -37.5 18.890625 -37.5625 L 32.953125 -39.5 C 34.816406 -39.789062 35.976562 -40.347656 36.4375 -41.171875 C 36.90625 -41.992188 37.175781 -42.65625 37.25 -43.15625 C 37.394531 -44.375 37.019531 -45.484375 36.125 -46.484375 C 35.226562 -47.484375 34.171875 -48.160156 32.953125 -48.515625 C 30.734375 -49.378906 28.441406 -49.8125 26.078125 -49.8125 L 25.765625 -49.8125 C 23.546875 -49.738281 21.429688 -49.414062 19.421875 -48.84375 C 17.421875 -48.269531 15.488281 -47.585938 13.625 -46.796875 C 13.0625 -46.515625 12.382812 -46.375 11.59375 -46.375 C 10.019531 -46.375 8.460938 -46.890625 6.921875 -47.921875 C 5.378906 -48.960938 4.289062 -50.195312 3.65625 -51.625 C 3.363281 -52.195312 3.234375 -52.679688 3.265625 -53.078125 C 3.304688 -53.472656 3.363281 -53.78125 3.4375 -54 C 3.863281 -54.925781 4.703125 -55.765625 5.953125 -56.515625 C 7.210938 -57.265625 8.535156 -57.90625 9.921875 -58.4375 C 11.316406 -58.976562 12.484375 -59.394531 13.421875 -59.6875 C 18.566406 -61.332031 23.753906 -62.15625 28.984375 -62.15625 C 29.484375 -62.15625 29.984375 -62.15625 30.484375 -62.15625 C 30.984375 -62.15625 31.484375 -62.117188 31.984375 -62.046875 C 34.492188 -61.898438 37.269531 -61.414062 40.3125 -60.59375 C 43.351562 -59.769531 45.945312 -58.210938 48.09375 -55.921875 C 50.59375 -53.203125 52.09375 -50.484375 52.59375 -47.765625 C 53.164062 -44.691406 53.363281 -41.488281 53.1875 -38.15625 C 53.007812 -34.832031 52.957031 -31.597656 53.03125 -28.453125 C 53.03125 -25.222656 53.03125 -21.976562 53.03125 -18.71875 C 53.03125 -15.46875 53.066406 -12.269531 53.140625 -9.125 C 53.140625 -8.050781 53.191406 -6.90625 53.296875 -5.6875 C 53.398438 -4.46875 53.128906 -3.46875 52.484375 -2.6875 Z M 36.921875 -21.140625 C 37.492188 -22.285156 37.671875 -23.25 37.453125 -24.03125 C 37.242188 -24.820312 37.03125 -25.363281 36.8125 -25.65625 C 36.53125 -26.082031 36.082031 -26.492188 35.46875 -26.890625 C 34.863281 -27.285156 34.023438 -27.519531 32.953125 -27.59375 L 32.09375 -27.6875 C 31.445312 -27.757812 30.785156 -27.796875 30.109375 -27.796875 C 29.429688 -27.796875 28.695312 -27.796875 27.90625 -27.796875 C 26.6875 -27.796875 25.21875 -27.671875 23.5 -27.421875 C 21.789062 -27.171875 20.148438 -26.507812 18.578125 -25.4375 C 17.492188 -24.582031 16.8125 -23.6875 16.53125 -22.75 C 16.238281 -21.96875 16.203125 -20.96875 16.421875 -19.75 C 16.921875 -17.53125 17.882812 -15.8125 19.3125 -14.59375 C 20.75 -13.382812 22.46875 -12.78125 24.46875 -12.78125 C 26.976562 -12.78125 29.445312 -13.601562 31.875 -15.25 C 34.3125 -16.894531 35.992188 -18.859375 36.921875 -21.140625 Z M 36.921875 -21.140625 "/></g></g></g></g></g></g><g clip-path="url(#8fd4d177a1)"><g transform="matrix(1, 0, 0, 1, 0, 2)"><g clip-path="url(#dca9b93a93)"><g fill="#ffffff" fill-opacity="1"><g transform="translate(1.17738, 84.244827)"><g><path d="M 3.65625 -79.65625 C 3.71875 -79.65625 3.785156 -79.65625 3.859375 -79.65625 C 3.929688 -79.65625 4.003906 -79.65625 4.078125 -79.65625 C 5.867188 -79.65625 7.625 -79.632812 9.34375 -79.59375 C 11.0625 -79.5625 12.8125 -79.507812 14.59375 -79.4375 C 15.882812 -79.363281 16.53125 -78.859375 16.53125 -77.921875 C 16.53125 -76.992188 16.53125 -76.03125 16.53125 -75.03125 C 16.53125 -68.875 16.53125 -62.679688 16.53125 -56.453125 C 16.53125 -50.234375 16.53125 -44.046875 16.53125 -37.890625 C 16.53125 -34.953125 16.507812 -32 16.46875 -29.03125 C 16.4375 -26.0625 16.421875 -23.113281 16.421875 -20.1875 C 16.421875 -17.457031 16.582031 -14.71875 16.90625 -11.96875 C 17.226562 -9.21875 17.210938 -6.445312 16.859375 -3.65625 C 16.640625 -2.289062 16.171875 -1.410156 15.453125 -1.015625 C 14.742188 -0.617188 13.707031 -0.351562 12.34375 -0.21875 C 11.695312 -0.144531 10.710938 -0.0859375 9.390625 -0.046875 C 8.066406 -0.015625 6.6875 -0.0859375 5.25 -0.265625 C 3.820312 -0.441406 2.585938 -0.796875 1.546875 -1.328125 C 0.515625 -1.867188 0 -2.644531 0 -3.65625 C 0 -15.675781 0.015625 -27.695312 0.046875 -39.71875 C 0.0859375 -51.738281 0.0703125 -63.757812 0 -75.78125 C 0 -77.21875 0.265625 -78.203125 0.796875 -78.734375 C 1.335938 -79.273438 2.289062 -79.582031 3.65625 -79.65625 Z M 3.65625 -79.65625 "/></g></g></g></g></g></g><g clip-path="url(#cfb0652b23)"><g clip-path="url(#8daa1fc8f1)"><g transform="matrix(1, 0, 0, 1, 317, 65)"><g clip-path="url(#bc3cdb4004)"><g clip-path="url(#5ea6d6dec7)"><g clip-path="url(#42c5e84498)"><path fill="#ffffff" d="M 0.464844 0.585938 L 20.808594 0.585938 L 20.808594 20.933594 L 0.464844 20.933594 Z M 0.464844 0.585938 " fill-opacity="1" fill-rule="nonzero"/></g></g></g></g></g></g></g></g></svg>